# xmcd
#
# Track frame offsets:
#	150
#	14615
#	17007
#	29857
#	45021
#	61215
#	74131
#	91386
#	109556
#	125219
#	145407
#	167097
#	187535
#	213592
#
# Disc length: 3168 seconds
#
# Revision: 1
# Processed by: cddbd v1.5.2PL0 Copyright (c) Steve Scherf et al.
# Submitted via: audiograbber 1.83.01
#
DISCID=c70c5e0e
DTITLE=Gerry Mulligan - 1953 - 1954
DYEAR=1900
DGENRE=Jazz
TTITLE0=Utter Chaos Part 2
TTITLE1=My Old Flame
TTITLE2=I May Be Wrong
TTITLE3=Darn That Dream (alt. Take)
TTITLE4=I'm Beginning To See The Night
TTITLE5=The Nearness Of You
TTITLE6=Darn That Dream
TTITLE7=I Can't Get Started
TTITLE8=Fun House
TTITLE9=Bernie's Tune
TTITLE10=Walkin' Shoes
TTITLE11=Nearness Of You
TTITLE12=Motel and Utter Chaos
TTITLE13=Love Me Or Leave Me
EXTD=
EXTT0=
EXTT1=
EXTT2=
EXTT3=
EXTT4=
EXTT5=
EXTT6=
EXTT7=
EXTT8=
EXTT9=
EXTT10=
EXTT11=
EXTT12=
EXTT13=
PLAYORDER=
